<svg xmlns="http://www.w3.org/2000/svg" viewBox="0 0 580 340" width="580" height="340" role="img" font-family="Georgia, 'Times New Roman', serif" font-size="12"><defs><clipPath id="apcf9bnla"><rect x="64" y="30" width="416" height="258"/></clipPath></defs><line x1="64" y1="30" x2="64" y2="288" stroke="#d1d5db" stroke-width="0.8"/><line x1="116" y1="30" x2="116" y2="288" stroke="#d1d5db" stroke-width="0.8"/><line x1="168" y1="30" x2="168" y2="288" stroke="#d1d5db" stroke-width="0.8"/><line x1="220" y1="30" x2="220" y2="288" stroke="#d1d5db" stroke-width="0.8"/><line x1="272" y1="30" x2="272" y2="288" stroke="#d1d5db" stroke-width="0.8"/><line x1="324" y1="30" x2="324" y2="288" stroke="#d1d5db" stroke-width="0.8"/><line x1="376" y1="30" x2="376" y2="288" stroke="#d1d5db" stroke-width="0.8"/><line x1="428" y1="30" x2="428" y2="288" stroke="#d1d5db" stroke-width="0.8"/><line x1="480" y1="30" x2="480" y2="288" stroke="#d1d5db" stroke-width="0.8"/><line x1="64" y1="288" x2="480" y2="288" stroke="#d1d5db" stroke-width="0.8"/><line x1="64" y1="245" x2="480" y2="245" stroke="#d1d5db" stroke-width="0.8"/><line x1="64" y1="202" x2="480" y2="202" stroke="#d1d5db" stroke-width="0.8"/><line x1="64" y1="159" x2="480" y2="159" stroke="#d1d5db" stroke-width="0.8"/><line x1="64" y1="116" x2="480" y2="116" stroke="#d1d5db" stroke-width="0.8"/><line x1="64" y1="73" x2="480" y2="73" stroke="#d1d5db" stroke-width="0.8"/><line x1="64" y1="30" x2="480" y2="30" stroke="#d1d5db" stroke-width="0.8"/><rect x="64" y="30" width="416" height="258" fill="none" stroke="#9ca3af" stroke-width="1"/><line x1="64" y1="202" x2="480" y2="202" stroke="#111" stroke-width="1.6"/><line x1="64" y1="30" x2="64" y2="288" stroke="#111" stroke-width="1.6"/><line x1="64" y1="288" x2="64" y2="292" stroke="#111"/><text x="64" y="305" text-anchor="middle" fill="#111">0</text><line x1="116" y1="288" x2="116" y2="292" stroke="#111"/><text x="116" y="305" text-anchor="middle" fill="#111">1</text><line x1="168" y1="288" x2="168" y2="292" stroke="#111"/><text x="168" y="305" text-anchor="middle" fill="#111">2</text><line x1="220" y1="288" x2="220" y2="292" stroke="#111"/><text x="220" y="305" text-anchor="middle" fill="#111">3</text><line x1="272" y1="288" x2="272" y2="292" stroke="#111"/><text x="272" y="305" text-anchor="middle" fill="#111">4</text><line x1="324" y1="288" x2="324" y2="292" stroke="#111"/><text x="324" y="305" text-anchor="middle" fill="#111">5</text><line x1="376" y1="288" x2="376" y2="292" stroke="#111"/><text x="376" y="305" text-anchor="middle" fill="#111">6</text><line x1="428" y1="288" x2="428" y2="292" stroke="#111"/><text x="428" y="305" text-anchor="middle" fill="#111">7</text><line x1="480" y1="288" x2="480" y2="292" stroke="#111"/><text x="480" y="305" text-anchor="middle" fill="#111">8</text><line x1="60" y1="288" x2="64" y2="288" stroke="#111"/><text x="56" y="292" text-anchor="end" fill="#111">-2</text><line x1="60" y1="245" x2="64" y2="245" stroke="#111"/><text x="56" y="249" text-anchor="end" fill="#111">-1</text><line x1="60" y1="202" x2="64" y2="202" stroke="#111"/><text x="56" y="206" text-anchor="end" fill="#111">0</text><line x1="60" y1="159" x2="64" y2="159" stroke="#111"/><text x="56" y="163" text-anchor="end" fill="#111">1</text><line x1="60" y1="116" x2="64" y2="116" stroke="#111"/><text x="56" y="120" text-anchor="end" fill="#111">2</text><line x1="60" y1="73" x2="64" y2="73" stroke="#111"/><text x="56" y="77" text-anchor="end" fill="#111">3</text><line x1="60" y1="30" x2="64" y2="30" stroke="#111"/><text x="56" y="34" text-anchor="end" fill="#111">4</text><text x="272" y="330" text-anchor="middle" fill="#111" font-size="13">t (minutes)</text><text transform="translate(16 159) rotate(-90)" text-anchor="middle" fill="#111" font-size="13">f&#39;(t) (degrees Celsius per minute)</text><path d="M64,73 L66.6,77.27 L69.2,81.49 L71.8,85.66 L74.4,89.77 L77,93.83 L79.6,97.83 L82.2,101.78 L84.8,105.68 L87.4,109.52 L90,113.31 L92.6,117.05 L95.2,120.73 L97.8,124.36 L100.4,127.93 L103,131.45 L105.6,134.92 L108.2,138.33 L110.8,141.69 L113.4,145 L116,148.25 L118.6,151.45 L121.2,154.59 L123.8,157.68 L126.4,160.72 L129,163.7 L131.6,166.63 L134.2,169.51 L136.8,172.33 L139.4,175.1 L142,177.81 L144.6,180.47 L147.2,183.08 L149.8,185.63 L152.4,188.13 L155,190.58 L157.6,192.97 L160.2,195.31 L162.8,197.59 L165.4,199.82 L168,202 L170.6,204.12 L173.2,206.19 L175.8,208.21 L178.4,210.17 L181,212.08 L183.6,213.93 L186.2,215.73 L188.8,217.48 L191.4,219.17 L194,220.81 L196.6,222.4 L199.2,223.93 L201.8,225.41 L204.4,226.83 L207,228.2 L209.6,229.52 L212.2,230.78 L214.8,231.99 L217.4,233.15 L220,234.25 L222.6,235.3 L225.2,236.29 L227.8,237.23 L230.4,238.12 L233,238.95 L235.6,239.73 L238.2,240.46 L240.8,241.13 L243.4,241.75 L246,242.31 L248.6,242.82 L251.2,243.28 L253.8,243.68 L256.4,244.03 L259,244.33 L261.6,244.57 L264.2,244.76 L266.8,244.89 L269.4,244.97 L272,245 L274.6,244.97 L277.2,244.89 L279.8,244.76 L282.4,244.57 L285,244.33 L287.6,244.03 L290.2,243.68 L292.8,243.28 L295.4,242.82 L298,242.31 L300.6,241.75 L303.2,241.13 L305.8,240.46 L308.4,239.73 L311,238.95 L313.6,238.12 L316.2,237.23 L318.8,236.29 L321.4,235.3 L324,234.25 L326.6,233.15 L329.2,231.99 L331.8,230.78 L334.4,229.52 L337,228.2 L339.6,226.83 L342.2,225.41 L344.8,223.93 L347.4,222.4 L350,220.81 L352.6,219.17 L355.2,217.48 L357.8,215.73 L360.4,213.93 L363,212.08 L365.6,210.17 L368.2,208.21 L370.8,206.19 L373.4,204.12 L376,202 L378.6,199.82 L381.2,197.59 L383.8,195.31 L386.4,192.97 L389,190.58 L391.6,188.13 L394.2,185.63 L396.8,183.08 L399.4,180.47 L402,177.81 L404.6,175.1 L407.2,172.33 L409.8,169.51 L412.4,166.63 L415,163.7 L417.6,160.72 L420.2,157.68 L422.8,154.59 L425.4,151.45 L428,148.25 L430.6,145 L433.2,141.69 L435.8,138.33 L438.4,134.92 L441,131.45 L443.6,127.93 L446.2,124.36 L448.8,120.73 L451.4,117.05 L454,113.31 L456.6,109.52 L459.2,105.68 L461.8,101.78 L464.4,97.83 L467,93.83 L469.6,89.77 L472.2,85.66 L474.8,81.49 L477.4,77.27 L480,73" fill="none" stroke="#111111" stroke-width="2.4" stroke-linejoin="round" stroke-linecap="round" clip-path="url(#apcf9bnla)"/><text x="491" y="77" text-anchor="start" fill="#111111" font-size="12" font-weight="bold">f&#39;</text></svg>