<svg xmlns="http://www.w3.org/2000/svg" viewBox="0 0 580 340" width="580" height="340" style="max-width:100%;height:auto" role="img" font-family="Georgia, 'Times New Roman', serif" font-size="12"><defs><clipPath id="apc1vholtn"><rect x="64" y="30" width="416" height="258"/></clipPath></defs><line x1="64" y1="30" x2="64" y2="288" stroke="#d1d5db" stroke-width="0.8"/><line x1="116" y1="30" x2="116" y2="288" stroke="#d1d5db" stroke-width="0.8"/><line x1="168" y1="30" x2="168" y2="288" stroke="#d1d5db" stroke-width="0.8"/><line x1="220" y1="30" x2="220" y2="288" stroke="#d1d5db" stroke-width="0.8"/><line x1="272" y1="30" x2="272" y2="288" stroke="#d1d5db" stroke-width="0.8"/><line x1="324" y1="30" x2="324" y2="288" stroke="#d1d5db" stroke-width="0.8"/><line x1="376" y1="30" x2="376" y2="288" stroke="#d1d5db" stroke-width="0.8"/><line x1="428" y1="30" x2="428" y2="288" stroke="#d1d5db" stroke-width="0.8"/><line x1="480" y1="30" x2="480" y2="288" stroke="#d1d5db" stroke-width="0.8"/><line x1="64" y1="269.57" x2="480" y2="269.57" stroke="#d1d5db" stroke-width="0.8"/><line x1="64" y1="232.71" x2="480" y2="232.71" stroke="#d1d5db" stroke-width="0.8"/><line x1="64" y1="195.86" x2="480" y2="195.86" stroke="#d1d5db" stroke-width="0.8"/><line x1="64" y1="159" x2="480" y2="159" stroke="#d1d5db" stroke-width="0.8"/><line x1="64" y1="122.14" x2="480" y2="122.14" stroke="#d1d5db" stroke-width="0.8"/><line x1="64" y1="85.29" x2="480" y2="85.29" stroke="#d1d5db" stroke-width="0.8"/><line x1="64" y1="48.43" x2="480" y2="48.43" stroke="#d1d5db" stroke-width="0.8"/><rect x="64" y="30" width="416" height="258" fill="none" stroke="#9ca3af" stroke-width="1"/><line x1="64" y1="269.57" x2="480" y2="269.57" stroke="#111" stroke-width="1.6"/><line x1="64" y1="30" x2="64" y2="288" stroke="#111" stroke-width="1.6"/><line x1="64" y1="288" x2="64" y2="292" stroke="#111"/><text x="64" y="305" text-anchor="middle" fill="#111">0</text><line x1="116" y1="288" x2="116" y2="292" stroke="#111"/><text x="116" y="305" text-anchor="middle" fill="#111">1</text><line x1="168" y1="288" x2="168" y2="292" stroke="#111"/><text x="168" y="305" text-anchor="middle" fill="#111">2</text><line x1="220" y1="288" x2="220" y2="292" stroke="#111"/><text x="220" y="305" text-anchor="middle" fill="#111">3</text><line x1="272" y1="288" x2="272" y2="292" stroke="#111"/><text x="272" y="305" text-anchor="middle" fill="#111">4</text><line x1="324" y1="288" x2="324" y2="292" stroke="#111"/><text x="324" y="305" text-anchor="middle" fill="#111">5</text><line x1="376" y1="288" x2="376" y2="292" stroke="#111"/><text x="376" y="305" text-anchor="middle" fill="#111">6</text><line x1="428" y1="288" x2="428" y2="292" stroke="#111"/><text x="428" y="305" text-anchor="middle" fill="#111">7</text><line x1="480" y1="288" x2="480" y2="292" stroke="#111"/><text x="480" y="305" text-anchor="middle" fill="#111">8</text><line x1="60" y1="269.57" x2="64" y2="269.57" stroke="#111"/><text x="56" y="273.57" text-anchor="end" fill="#111">0</text><line x1="60" y1="232.71" x2="64" y2="232.71" stroke="#111"/><text x="56" y="236.71" text-anchor="end" fill="#111">2</text><line x1="60" y1="195.86" x2="64" y2="195.86" stroke="#111"/><text x="56" y="199.86" text-anchor="end" fill="#111">4</text><line x1="60" y1="159" x2="64" y2="159" stroke="#111"/><text x="56" y="163" text-anchor="end" fill="#111">6</text><line x1="60" y1="122.14" x2="64" y2="122.14" stroke="#111"/><text x="56" y="126.14" text-anchor="end" fill="#111">8</text><line x1="60" y1="85.29" x2="64" y2="85.29" stroke="#111"/><text x="56" y="89.29" text-anchor="end" fill="#111">10</text><line x1="60" y1="48.43" x2="64" y2="48.43" stroke="#111"/><text x="56" y="52.43" text-anchor="end" fill="#111">12</text><text x="272" y="330" text-anchor="middle" fill="#111" font-size="13">x</text><text transform="translate(16 159) rotate(-90)" text-anchor="middle" fill="#111" font-size="13">y</text><path d="M64,232.71 L168,214.29 L272,140.57 L376,85.29 L480,48.43" fill="none" stroke="#111111" stroke-width="2.4" stroke-linejoin="round" stroke-linecap="round" clip-path="url(#apc1vholtn)"/></svg>