<svg xmlns="http://www.w3.org/2000/svg" viewBox="0 0 580 340" width="580" height="340" style="max-width:100%;height:auto" role="img" font-family="Georgia, 'Times New Roman', serif" font-size="12"><defs><clipPath id="apc42us19"><rect x="64" y="30" width="416" height="258"/></clipPath></defs><line x1="64" y1="30" x2="64" y2="288" stroke="#d1d5db" stroke-width="0.8"/><line x1="147.2" y1="30" x2="147.2" y2="288" stroke="#d1d5db" stroke-width="0.8"/><line x1="230.4" y1="30" x2="230.4" y2="288" stroke="#d1d5db" stroke-width="0.8"/><line x1="313.6" y1="30" x2="313.6" y2="288" stroke="#d1d5db" stroke-width="0.8"/><line x1="396.8" y1="30" x2="396.8" y2="288" stroke="#d1d5db" stroke-width="0.8"/><line x1="480" y1="30" x2="480" y2="288" stroke="#d1d5db" stroke-width="0.8"/><line x1="64" y1="288" x2="480" y2="288" stroke="#d1d5db" stroke-width="0.8"/><line x1="64" y1="230.67" x2="480" y2="230.67" stroke="#d1d5db" stroke-width="0.8"/><line x1="64" y1="173.33" x2="480" y2="173.33" stroke="#d1d5db" stroke-width="0.8"/><line x1="64" y1="116" x2="480" y2="116" stroke="#d1d5db" stroke-width="0.8"/><line x1="64" y1="58.67" x2="480" y2="58.67" stroke="#d1d5db" stroke-width="0.8"/><rect x="64" y="30" width="416" height="258" fill="none" stroke="#9ca3af" stroke-width="1"/><line x1="64" y1="173.33" x2="480" y2="173.33" stroke="#111" stroke-width="1.6"/><line x1="64" y1="30" x2="64" y2="288" stroke="#111" stroke-width="1.6"/><line x1="64" y1="288" x2="64" y2="292" stroke="#111"/><text x="64" y="305" text-anchor="middle" fill="#111">0</text><line x1="147.2" y1="288" x2="147.2" y2="292" stroke="#111"/><text x="147.2" y="305" text-anchor="middle" fill="#111">2</text><line x1="230.4" y1="288" x2="230.4" y2="292" stroke="#111"/><text x="230.4" y="305" text-anchor="middle" fill="#111">4</text><line x1="313.6" y1="288" x2="313.6" y2="292" stroke="#111"/><text x="313.6" y="305" text-anchor="middle" fill="#111">6</text><line x1="396.8" y1="288" x2="396.8" y2="292" stroke="#111"/><text x="396.8" y="305" text-anchor="middle" fill="#111">8</text><line x1="480" y1="288" x2="480" y2="292" stroke="#111"/><text x="480" y="305" text-anchor="middle" fill="#111">10</text><line x1="60" y1="288" x2="64" y2="288" stroke="#111"/><text x="56" y="292" text-anchor="end" fill="#111">-4</text><line x1="60" y1="230.67" x2="64" y2="230.67" stroke="#111"/><text x="56" y="234.67" text-anchor="end" fill="#111">-2</text><line x1="60" y1="173.33" x2="64" y2="173.33" stroke="#111"/><text x="56" y="177.33" text-anchor="end" fill="#111">0</text><line x1="60" y1="116" x2="64" y2="116" stroke="#111"/><text x="56" y="120" text-anchor="end" fill="#111">2</text><line x1="60" y1="58.67" x2="64" y2="58.67" stroke="#111"/><text x="56" y="62.67" text-anchor="end" fill="#111">4</text><text x="272" y="330" text-anchor="middle" fill="#111" font-size="13">x</text><text transform="translate(16 159) rotate(-90)" text-anchor="middle" fill="#111" font-size="13">y</text><path d="M64,259.33 L147.2,173.33 L230.4,144.67 L313.6,58.67 L396.8,173.33 L480,230.67" fill="none" stroke="#111111" stroke-width="2.4" stroke-linejoin="round" stroke-linecap="round" clip-path="url(#apc42us19)"/></svg>