<svg xmlns="http://www.w3.org/2000/svg" viewBox="0 0 580 340" width="580" height="340" style="max-width:100%;height:auto" role="img" font-family="Georgia, 'Times New Roman', serif" font-size="12"><defs><clipPath id="apc1bjgwp5"><rect x="64" y="30" width="416" height="258"/></clipPath></defs><line x1="64" y1="30" x2="64" y2="288" stroke="#d1d5db" stroke-width="0.8"/><line x1="168" y1="30" x2="168" y2="288" stroke="#d1d5db" stroke-width="0.8"/><line x1="272" y1="30" x2="272" y2="288" stroke="#d1d5db" stroke-width="0.8"/><line x1="376" y1="30" x2="376" y2="288" stroke="#d1d5db" stroke-width="0.8"/><line x1="480" y1="30" x2="480" y2="288" stroke="#d1d5db" stroke-width="0.8"/><line x1="64" y1="288" x2="480" y2="288" stroke="#d1d5db" stroke-width="0.8"/><line x1="64" y1="264.55" x2="480" y2="264.55" stroke="#d1d5db" stroke-width="0.8"/><line x1="64" y1="241.09" x2="480" y2="241.09" stroke="#d1d5db" stroke-width="0.8"/><line x1="64" y1="217.64" x2="480" y2="217.64" stroke="#d1d5db" stroke-width="0.8"/><line x1="64" y1="194.18" x2="480" y2="194.18" stroke="#d1d5db" stroke-width="0.8"/><line x1="64" y1="170.73" x2="480" y2="170.73" stroke="#d1d5db" stroke-width="0.8"/><line x1="64" y1="147.27" x2="480" y2="147.27" stroke="#d1d5db" stroke-width="0.8"/><line x1="64" y1="123.82" x2="480" y2="123.82" stroke="#d1d5db" stroke-width="0.8"/><line x1="64" y1="100.36" x2="480" y2="100.36" stroke="#d1d5db" stroke-width="0.8"/><line x1="64" y1="76.91" x2="480" y2="76.91" stroke="#d1d5db" stroke-width="0.8"/><line x1="64" y1="53.45" x2="480" y2="53.45" stroke="#d1d5db" stroke-width="0.8"/><line x1="64" y1="30" x2="480" y2="30" stroke="#d1d5db" stroke-width="0.8"/><rect x="64" y="30" width="416" height="258" fill="none" stroke="#9ca3af" stroke-width="1"/><line x1="64" y1="123.82" x2="480" y2="123.82" stroke="#111" stroke-width="1.6"/><line x1="64" y1="30" x2="64" y2="288" stroke="#111" stroke-width="1.6"/><line x1="64" y1="288" x2="64" y2="292" stroke="#111"/><text x="64" y="305" text-anchor="middle" fill="#111">0</text><line x1="168" y1="288" x2="168" y2="292" stroke="#111"/><text x="168" y="305" text-anchor="middle" fill="#111">1</text><line x1="272" y1="288" x2="272" y2="292" stroke="#111"/><text x="272" y="305" text-anchor="middle" fill="#111">2</text><line x1="376" y1="288" x2="376" y2="292" stroke="#111"/><text x="376" y="305" text-anchor="middle" fill="#111">3</text><line x1="480" y1="288" x2="480" y2="292" stroke="#111"/><text x="480" y="305" text-anchor="middle" fill="#111">4</text><line x1="60" y1="288" x2="64" y2="288" stroke="#111"/><text x="56" y="292" text-anchor="end" fill="#111">-7</text><line x1="60" y1="264.55" x2="64" y2="264.55" stroke="#111"/><text x="56" y="268.55" text-anchor="end" fill="#111">-6</text><line x1="60" y1="241.09" x2="64" y2="241.09" stroke="#111"/><text x="56" y="245.09" text-anchor="end" fill="#111">-5</text><line x1="60" y1="217.64" x2="64" y2="217.64" stroke="#111"/><text x="56" y="221.64" text-anchor="end" fill="#111">-4</text><line x1="60" y1="194.18" x2="64" y2="194.18" stroke="#111"/><text x="56" y="198.18" text-anchor="end" fill="#111">-3</text><line x1="60" y1="170.73" x2="64" y2="170.73" stroke="#111"/><text x="56" y="174.73" text-anchor="end" fill="#111">-2</text><line x1="60" y1="147.27" x2="64" y2="147.27" stroke="#111"/><text x="56" y="151.27" text-anchor="end" fill="#111">-1</text><line x1="60" y1="123.82" x2="64" y2="123.82" stroke="#111"/><text x="56" y="127.82" text-anchor="end" fill="#111">0</text><line x1="60" y1="100.36" x2="64" y2="100.36" stroke="#111"/><text x="56" y="104.36" text-anchor="end" fill="#111">1</text><line x1="60" y1="76.91" x2="64" y2="76.91" stroke="#111"/><text x="56" y="80.91" text-anchor="end" fill="#111">2</text><line x1="60" y1="53.45" x2="64" y2="53.45" stroke="#111"/><text x="56" y="57.45" text-anchor="end" fill="#111">3</text><line x1="60" y1="30" x2="64" y2="30" stroke="#111"/><text x="56" y="34" text-anchor="end" fill="#111">4</text><text x="272" y="330" text-anchor="middle" fill="#111" font-size="13">x</text><text transform="translate(16 159) rotate(-90)" text-anchor="middle" fill="#111" font-size="13">f⁽⁴⁾(x)</text><path d="M64,170.73 L168,170.73 L272,170.73 L376,264.55 L480,53.45" fill="none" stroke="#111111" stroke-width="2.4" stroke-linejoin="round" stroke-linecap="round" clip-path="url(#apc1bjgwp5)"/></svg>