<svg xmlns="http://www.w3.org/2000/svg" viewBox="0 0 580 340" width="580" height="340" style="max-width:100%;height:auto" role="img" font-family="Georgia, 'Times New Roman', serif" font-size="12"><defs><clipPath id="apc2fcli3"><rect x="64" y="30" width="416" height="258"/></clipPath></defs><line x1="64" y1="30" x2="64" y2="288" stroke="#d1d5db" stroke-width="0.8"/><line x1="147.2" y1="30" x2="147.2" y2="288" stroke="#d1d5db" stroke-width="0.8"/><line x1="230.4" y1="30" x2="230.4" y2="288" stroke="#d1d5db" stroke-width="0.8"/><line x1="313.6" y1="30" x2="313.6" y2="288" stroke="#d1d5db" stroke-width="0.8"/><line x1="396.8" y1="30" x2="396.8" y2="288" stroke="#d1d5db" stroke-width="0.8"/><line x1="480" y1="30" x2="480" y2="288" stroke="#d1d5db" stroke-width="0.8"/><line x1="64" y1="288" x2="480" y2="288" stroke="#d1d5db" stroke-width="0.8"/><line x1="64" y1="236.4" x2="480" y2="236.4" stroke="#d1d5db" stroke-width="0.8"/><line x1="64" y1="184.8" x2="480" y2="184.8" stroke="#d1d5db" stroke-width="0.8"/><line x1="64" y1="133.2" x2="480" y2="133.2" stroke="#d1d5db" stroke-width="0.8"/><line x1="64" y1="81.6" x2="480" y2="81.6" stroke="#d1d5db" stroke-width="0.8"/><line x1="64" y1="30" x2="480" y2="30" stroke="#d1d5db" stroke-width="0.8"/><rect x="64" y="30" width="416" height="258" fill="none" stroke="#9ca3af" stroke-width="1"/><line x1="64" y1="288" x2="480" y2="288" stroke="#111" stroke-width="1.6"/><line x1="64" y1="30" x2="64" y2="288" stroke="#111" stroke-width="1.6"/><line x1="64" y1="288" x2="64" y2="292" stroke="#111"/><text x="64" y="305" text-anchor="middle" fill="#111">0</text><line x1="147.2" y1="288" x2="147.2" y2="292" stroke="#111"/><text x="147.2" y="305" text-anchor="middle" fill="#111">20</text><line x1="230.4" y1="288" x2="230.4" y2="292" stroke="#111"/><text x="230.4" y="305" text-anchor="middle" fill="#111">40</text><line x1="313.6" y1="288" x2="313.6" y2="292" stroke="#111"/><text x="313.6" y="305" text-anchor="middle" fill="#111">60</text><line x1="396.8" y1="288" x2="396.8" y2="292" stroke="#111"/><text x="396.8" y="305" text-anchor="middle" fill="#111">80</text><line x1="480" y1="288" x2="480" y2="292" stroke="#111"/><text x="480" y="305" text-anchor="middle" fill="#111">100</text><line x1="60" y1="288" x2="64" y2="288" stroke="#111"/><text x="56" y="292" text-anchor="end" fill="#111">0</text><line x1="60" y1="236.4" x2="64" y2="236.4" stroke="#111"/><text x="56" y="240.4" text-anchor="end" fill="#111">10</text><line x1="60" y1="184.8" x2="64" y2="184.8" stroke="#111"/><text x="56" y="188.8" text-anchor="end" fill="#111">20</text><line x1="60" y1="133.2" x2="64" y2="133.2" stroke="#111"/><text x="56" y="137.2" text-anchor="end" fill="#111">30</text><line x1="60" y1="81.6" x2="64" y2="81.6" stroke="#111"/><text x="56" y="85.6" text-anchor="end" fill="#111">40</text><line x1="60" y1="30" x2="64" y2="30" stroke="#111"/><text x="56" y="34" text-anchor="end" fill="#111">50</text><text x="272" y="330" text-anchor="middle" fill="#111" font-size="13">Classes per week</text><text transform="translate(16 159) rotate(-90)" text-anchor="middle" fill="#111" font-size="13">Price and cost (dollars per class)</text><path d="M64,30 L66.6,31.61 L69.2,33.22 L71.8,34.84 L74.4,36.45 L77,38.06 L79.6,39.67 L82.2,41.29 L84.8,42.9 L87.4,44.51 L90,46.13 L92.6,47.74 L95.2,49.35 L97.8,50.96 L100.4,52.58 L103,54.19 L105.6,55.8 L108.2,57.41 L110.8,59.03 L113.4,60.64 L116,62.25 L118.6,63.86 L121.2,65.47 L123.8,67.09 L126.4,68.7 L129,70.31 L131.6,71.92 L134.2,73.54 L136.8,75.15 L139.4,76.76 L142,78.38 L144.6,79.99 L147.2,81.6 L149.8,83.21 L152.4,84.83 L155,86.44 L157.6,88.05 L160.2,89.66 L162.8,91.28 L165.4,92.89 L168,94.5 L170.6,96.11 L173.2,97.73 L175.8,99.34 L178.4,100.95 L181,102.56 L183.6,104.17 L186.2,105.79 L188.8,107.4 L191.4,109.01 L194,110.63 L196.6,112.24 L199.2,113.85 L201.8,115.46 L204.4,117.08 L207,118.69 L209.6,120.3 L212.2,121.91 L214.8,123.53 L217.4,125.14 L220,126.75 L222.6,128.36 L225.2,129.98 L227.8,131.59 L230.4,133.2 L233,134.81 L235.6,136.42 L238.2,138.04 L240.8,139.65 L243.4,141.26 L246,142.88 L248.6,144.49 L251.2,146.1 L253.8,147.71 L256.4,149.33 L259,150.94 L261.6,152.55 L264.2,154.16 L266.8,155.78 L269.4,157.39 L272,159 L274.6,160.61 L277.2,162.23 L279.8,163.84 L282.4,165.45 L285,167.06 L287.6,168.68 L290.2,170.29 L292.8,171.9 L295.4,173.51 L298,175.13 L300.6,176.74 L303.2,178.35 L305.8,179.96 L308.4,181.58 L311,183.19 L313.6,184.8 L316.2,186.41 L318.8,188.02 L321.4,189.64 L324,191.25 L326.6,192.86 L329.2,194.48 L331.8,196.09 L334.4,197.7 L337,199.31 L339.6,200.93 L342.2,202.54 L344.8,204.15 L347.4,205.76 L350,207.38 L352.6,208.99 L355.2,210.6 L357.8,212.21 L360.4,213.83 L363,215.44 L365.6,217.05 L368.2,218.66 L370.8,220.27 L373.4,221.89 L376,223.5 L378.6,225.11 L381.2,226.73 L383.8,228.34 L386.4,229.95 L389,231.56 L391.6,233.18 L394.2,234.79 L396.8,236.4 L399.4,238.01 L402,239.63 L404.6,241.24 L407.2,242.85 L409.8,244.46 L412.4,246.08 L415,247.69 L417.6,249.3 L420.2,250.91 L422.8,252.53 L425.4,254.14 L428,255.75 L430.6,257.36 L433.2,258.98 L435.8,260.59 L438.4,262.2 L441,263.81 L443.6,265.43 L446.2,267.04 L448.8,268.65 L451.4,270.26 L454,271.88 L456.6,273.49 L459.2,275.1 L461.8,276.71 L464.4,278.33 L467,279.94 L469.6,281.55 L472.2,283.16 L474.8,284.77 L477.4,286.39 L480,288" fill="none" stroke="#111111" stroke-width="2.4" stroke-linejoin="round" stroke-linecap="round" clip-path="url(#apc2fcli3)"/><path d="M64,30 L66.6,33.22 L69.2,36.45 L71.8,39.67 L74.4,42.9 L77,46.13 L79.6,49.35 L82.2,52.58 L84.8,55.8 L87.4,59.03 L90,62.25 L92.6,65.47 L95.2,68.7 L97.8,71.92 L100.4,75.15 L103,78.38 L105.6,81.6 L108.2,84.83 L110.8,88.05 L113.4,91.28 L116,94.5 L118.6,97.73 L121.2,100.95 L123.8,104.17 L126.4,107.4 L129,110.63 L131.6,113.85 L134.2,117.08 L136.8,120.3 L139.4,123.53 L142,126.75 L144.6,129.98 L147.2,133.2 L149.8,136.42 L152.4,139.65 L155,142.88 L157.6,146.1 L160.2,149.33 L162.8,152.55 L165.4,155.78 L168,159 L170.6,162.23 L173.2,165.45 L175.8,168.68 L178.4,171.9 L181,175.13 L183.6,178.35 L186.2,181.58 L188.8,184.8 L191.4,188.02 L194,191.25 L196.6,194.48 L199.2,197.7 L201.8,200.93 L204.4,204.15 L207,207.38 L209.6,210.6 L212.2,213.83 L214.8,217.05 L217.4,220.27 L220,223.5 L222.6,226.73 L225.2,229.95 L227.8,233.18 L230.4,236.4 L233,239.63 L235.6,242.85 L238.2,246.08 L240.8,249.3 L243.4,252.53 L246,255.75 L248.6,258.98 L251.2,262.2 L253.8,265.43 L256.4,268.65 L259,271.88 L261.6,275.1 L264.2,278.33 L266.8,281.55 L269.4,284.77 L272,288" fill="none" stroke="#C8102E" stroke-width="2.4" stroke-linejoin="round" stroke-linecap="round" clip-path="url(#apc2fcli3)"/><path d="M64,184.8 L480,184.8" fill="none" stroke="#1B6FB0" stroke-width="2.4" stroke-linejoin="round" stroke-linecap="round" clip-path="url(#apc2fcli3)"/><path d="M134.2,34.03 L136.8,40.6 L139.4,46.65 L142,52.25 L144.6,57.44 L147.2,62.25 L149.8,66.72 L152.4,70.88 L155,74.76 L157.6,78.38 L160.2,81.75 L162.8,84.91 L165.4,87.86 L168,90.63 L170.6,93.22 L173.2,95.65 L175.8,97.93 L178.4,100.07 L181,102.08 L183.6,103.96 L186.2,105.74 L188.8,107.4 L191.4,108.96 L194,110.43 L196.6,111.81 L199.2,113.11 L201.8,114.32 L204.4,115.46 L207,116.53 L209.6,117.54 L212.2,118.48 L214.8,119.35 L217.4,120.18 L220,120.95 L222.6,121.66 L225.2,122.33 L227.8,122.95 L230.4,123.53 L233,124.06 L235.6,124.55 L238.2,125.01 L240.8,125.42 L243.4,125.8 L246,126.15 L248.6,126.47 L251.2,126.75 L253.8,127 L256.4,127.23 L259,127.43 L261.6,127.6 L264.2,127.74 L266.8,127.87 L269.4,127.96 L272,128.04 L274.6,128.09 L277.2,128.13 L279.8,128.14 L282.4,128.13 L285,128.11 L287.6,128.06 L290.2,128 L292.8,127.92 L295.4,127.83 L298,127.72 L300.6,127.59 L303.2,127.45 L305.8,127.3 L308.4,127.13 L311,126.95 L313.6,126.75 L316.2,126.54 L318.8,126.32 L321.4,126.09 L324,125.85 L326.6,125.59 L329.2,125.33 L331.8,125.05 L334.4,124.77 L337,124.47 L339.6,124.16 L342.2,123.85 L344.8,123.53 L347.4,123.19 L350,122.85 L352.6,122.5 L355.2,122.14 L357.8,121.78 L360.4,121.4 L363,121.02 L365.6,120.63 L368.2,120.24 L370.8,119.84 L373.4,119.43 L376,119.01 L378.6,118.59 L381.2,118.16 L383.8,117.72 L386.4,117.28 L389,116.84 L391.6,116.38 L394.2,115.93 L396.8,115.46 L399.4,114.99 L402,114.52 L404.6,114.04 L407.2,113.56 L409.8,113.07 L412.4,112.57 L415,112.08 L417.6,111.57 L420.2,111.07 L422.8,110.55 L425.4,110.04 L428,109.52 L430.6,109 L433.2,108.47 L435.8,107.94 L438.4,107.4 L441,106.86 L443.6,106.32 L446.2,105.77 L448.8,105.22 L451.4,104.67 L454,104.11 L456.6,103.55 L459.2,102.99 L461.8,102.42 L464.4,101.85 L467,101.28 L469.6,100.7 L472.2,100.12 L474.8,99.54 L477.4,98.96 L480,98.37" fill="none" stroke="#0f7b4a" stroke-width="2.4" stroke-linejoin="round" stroke-linecap="round" clip-path="url(#apc2fcli3)"/><circle cx="188.8" cy="107.4" r="4.6" fill="#111" stroke="#111" stroke-width="1.8"/><text x="489" y="279" text-anchor="start" fill="#111111" font-size="12" font-weight="bold">D</text><text x="281" y="279" text-anchor="start" fill="#C8102E" font-size="12" font-weight="bold">MR</text><text x="491" y="188.8" text-anchor="start" fill="#1B6FB0" font-size="12" font-weight="bold">MC</text><text x="491" y="102.37" text-anchor="start" fill="#0f7b4a" font-size="12" font-weight="bold">ATC</text><text x="197.8" y="98.4" text-anchor="start" fill="#111" font-size="12" font-weight="bold">A</text></svg>