<svg xmlns="http://www.w3.org/2000/svg" viewBox="0 0 580 340" width="580" height="340" style="max-width:100%;height:auto" role="img" font-family="Georgia, 'Times New Roman', serif" font-size="12"><defs><clipPath id="apc800td3"><rect x="64" y="30" width="416" height="258"/></clipPath></defs><line x1="64" y1="30" x2="64" y2="288" stroke="#d1d5db" stroke-width="0.8"/><line x1="147.2" y1="30" x2="147.2" y2="288" stroke="#d1d5db" stroke-width="0.8"/><line x1="230.4" y1="30" x2="230.4" y2="288" stroke="#d1d5db" stroke-width="0.8"/><line x1="313.6" y1="30" x2="313.6" y2="288" stroke="#d1d5db" stroke-width="0.8"/><line x1="396.8" y1="30" x2="396.8" y2="288" stroke="#d1d5db" stroke-width="0.8"/><line x1="480" y1="30" x2="480" y2="288" stroke="#d1d5db" stroke-width="0.8"/><line x1="64" y1="288" x2="480" y2="288" stroke="#d1d5db" stroke-width="0.8"/><line x1="64" y1="236.4" x2="480" y2="236.4" stroke="#d1d5db" stroke-width="0.8"/><line x1="64" y1="184.8" x2="480" y2="184.8" stroke="#d1d5db" stroke-width="0.8"/><line x1="64" y1="133.2" x2="480" y2="133.2" stroke="#d1d5db" stroke-width="0.8"/><line x1="64" y1="81.6" x2="480" y2="81.6" stroke="#d1d5db" stroke-width="0.8"/><line x1="64" y1="30" x2="480" y2="30" stroke="#d1d5db" stroke-width="0.8"/><rect x="64" y="30" width="416" height="258" fill="none" stroke="#9ca3af" stroke-width="1"/><line x1="64" y1="288" x2="480" y2="288" stroke="#111" stroke-width="1.6"/><line x1="64" y1="30" x2="64" y2="288" stroke="#111" stroke-width="1.6"/><line x1="64" y1="288" x2="64" y2="292" stroke="#111"/><text x="64" y="305" text-anchor="middle" fill="#111">0</text><line x1="147.2" y1="288" x2="147.2" y2="292" stroke="#111"/><text x="147.2" y="305" text-anchor="middle" fill="#111">1</text><line x1="230.4" y1="288" x2="230.4" y2="292" stroke="#111"/><text x="230.4" y="305" text-anchor="middle" fill="#111">2</text><line x1="313.6" y1="288" x2="313.6" y2="292" stroke="#111"/><text x="313.6" y="305" text-anchor="middle" fill="#111">3</text><line x1="396.8" y1="288" x2="396.8" y2="292" stroke="#111"/><text x="396.8" y="305" text-anchor="middle" fill="#111">4</text><line x1="480" y1="288" x2="480" y2="292" stroke="#111"/><text x="480" y="305" text-anchor="middle" fill="#111">5</text><line x1="60" y1="288" x2="64" y2="288" stroke="#111"/><text x="56" y="292" text-anchor="end" fill="#111">0</text><line x1="60" y1="236.4" x2="64" y2="236.4" stroke="#111"/><text x="56" y="240.4" text-anchor="end" fill="#111">1</text><line x1="60" y1="184.8" x2="64" y2="184.8" stroke="#111"/><text x="56" y="188.8" text-anchor="end" fill="#111">2</text><line x1="60" y1="133.2" x2="64" y2="133.2" stroke="#111"/><text x="56" y="137.2" text-anchor="end" fill="#111">3</text><line x1="60" y1="81.6" x2="64" y2="81.6" stroke="#111"/><text x="56" y="85.6" text-anchor="end" fill="#111">4</text><line x1="60" y1="30" x2="64" y2="30" stroke="#111"/><text x="56" y="34" text-anchor="end" fill="#111">5</text><text x="272" y="330" text-anchor="middle" fill="#111" font-size="13">x (dm)</text><text transform="translate(16 159) rotate(-90)" text-anchor="middle" fill="#111" font-size="13">y (dm)</text><polygon points="64,184.8 68.16,173.26 72.32,168.48 76.48,164.82 80.64,161.72 84.8,159 88.96,156.54 93.12,154.27 97.28,152.17 101.44,150.19 105.6,148.31 109.76,146.53 113.92,144.83 118.08,143.2 122.24,141.63 126.4,140.11 130.56,138.65 134.72,137.23 138.88,135.85 143.04,134.51 147.2,133.2 151.36,131.93 155.52,130.68 159.68,129.47 163.84,128.28 168,127.11 172.16,125.97 176.32,124.85 180.48,123.75 184.64,122.67 188.8,121.6 192.96,120.56 197.12,119.53 201.28,118.52 205.44,117.52 209.6,116.54 213.76,115.57 217.92,114.62 222.08,113.67 226.24,112.74 230.4,111.83 234.56,110.92 238.72,110.02 242.88,109.14 247.04,108.26 251.2,107.4 255.36,106.54 259.52,105.7 263.68,104.86 267.84,104.03 272,103.21 276.16,102.4 280.32,101.6 284.48,100.8 288.64,100.01 292.8,99.23 296.96,98.46 301.12,97.69 305.28,96.93 309.44,96.17 313.6,95.43 317.76,94.68 321.92,93.95 326.08,93.22 330.24,92.5 334.4,91.78 338.56,91.06 342.72,90.36 346.88,89.65 351.04,88.96 355.2,88.27 359.36,87.58 363.52,86.9 367.68,86.22 371.84,85.55 376,84.88 380.16,84.21 384.32,83.55 388.48,82.9 392.64,82.25 396.8,81.6 396.8,133.2 392.64,134.49 388.48,135.78 384.32,137.07 380.16,138.36 376,139.65 371.84,140.94 367.68,142.23 363.52,143.52 359.36,144.81 355.2,146.1 351.04,147.39 346.88,148.68 342.72,149.97 338.56,151.26 334.4,152.55 330.24,153.84 326.08,155.13 321.92,156.42 317.76,157.71 313.6,159 309.44,160.29 305.28,161.58 301.12,162.87 296.96,164.16 292.8,165.45 288.64,166.74 284.48,168.03 280.32,169.32 276.16,170.61 272,171.9 267.84,173.19 263.68,174.48 259.52,175.77 255.36,177.06 251.2,178.35 247.04,179.64 242.88,180.93 238.72,182.22 234.56,183.51 230.4,184.8 226.24,186.09 222.08,187.38 217.92,188.67 213.76,189.96 209.6,191.25 205.44,192.54 201.28,193.83 197.12,195.12 192.96,196.41 188.8,197.7 184.64,198.99 180.48,200.28 176.32,201.57 172.16,202.86 168,204.15 163.84,205.44 159.68,206.73 155.52,208.02 151.36,209.31 147.2,210.6 143.04,211.89 138.88,213.18 134.72,214.47 130.56,215.76 126.4,217.05 122.24,218.34 118.08,219.63 113.92,220.92 109.76,222.21 105.6,223.5 101.44,224.79 97.28,226.08 93.12,227.37 88.96,228.66 84.8,229.95 80.64,231.24 76.48,232.53 72.32,233.82 68.16,235.11 64,236.4" fill="#1B6FB0" fill-opacity="0.18" stroke="none" clip-path="url(#apc800td3)"/><path d="M64,184.8 L66.08,176.64 L68.16,173.26 L70.24,170.67 L72.32,168.48 L74.4,166.56 L76.48,164.82 L78.56,163.21 L80.64,161.72 L82.72,160.32 L84.8,159 L86.88,157.74 L88.96,156.54 L91.04,155.38 L93.12,154.27 L95.2,153.2 L97.28,152.17 L99.36,151.16 L101.44,150.19 L103.52,149.24 L105.6,148.31 L107.68,147.41 L109.76,146.53 L111.84,145.67 L113.92,144.83 L116,144.01 L118.08,143.2 L120.16,142.41 L122.24,141.63 L124.32,140.86 L126.4,140.11 L128.48,139.37 L130.56,138.65 L132.64,137.93 L134.72,137.23 L136.8,136.53 L138.88,135.85 L140.96,135.17 L143.04,134.51 L145.12,133.85 L147.2,133.2 L149.28,132.56 L151.36,131.93 L153.44,131.3 L155.52,130.68 L157.6,130.07 L159.68,129.47 L161.76,128.87 L163.84,128.28 L165.92,127.69 L168,127.11 L170.08,126.54 L172.16,125.97 L174.24,125.4 L176.32,124.85 L178.4,124.29 L180.48,123.75 L182.56,123.2 L184.64,122.67 L186.72,122.13 L188.8,121.6 L190.88,121.08 L192.96,120.56 L195.04,120.04 L197.12,119.53 L199.2,119.02 L201.28,118.52 L203.36,118.02 L205.44,117.52 L207.52,117.03 L209.6,116.54 L211.68,116.05 L213.76,115.57 L215.84,115.09 L217.92,114.62 L220,114.14 L222.08,113.67 L224.16,113.21 L226.24,112.74 L228.32,112.28 L230.4,111.83 L232.48,111.37 L234.56,110.92 L236.64,110.47 L238.72,110.02 L240.8,109.58 L242.88,109.14 L244.96,108.7 L247.04,108.26 L249.12,107.83 L251.2,107.4 L253.28,106.97 L255.36,106.54 L257.44,106.12 L259.52,105.7 L261.6,105.28 L263.68,104.86 L265.76,104.45 L267.84,104.03 L269.92,103.62 L272,103.21 L274.08,102.81 L276.16,102.4 L278.24,102 L280.32,101.6 L282.4,101.2 L284.48,100.8 L286.56,100.41 L288.64,100.01 L290.72,99.62 L292.8,99.23 L294.88,98.84 L296.96,98.46 L299.04,98.07 L301.12,97.69 L303.2,97.31 L305.28,96.93 L307.36,96.55 L309.44,96.17 L311.52,95.8 L313.6,95.43 L315.68,95.05 L317.76,94.68 L319.84,94.32 L321.92,93.95 L324,93.58 L326.08,93.22 L328.16,92.86 L330.24,92.5 L332.32,92.14 L334.4,91.78 L336.48,91.42 L338.56,91.06 L340.64,90.71 L342.72,90.36 L344.8,90 L346.88,89.65 L348.96,89.31 L351.04,88.96 L353.12,88.61 L355.2,88.27 L357.28,87.92 L359.36,87.58 L361.44,87.24 L363.52,86.9 L365.6,86.56 L367.68,86.22 L369.76,85.88 L371.84,85.55 L373.92,85.21 L376,84.88 L378.08,84.54 L380.16,84.21 L382.24,83.88 L384.32,83.55 L386.4,83.23 L388.48,82.9 L390.56,82.57 L392.64,82.25 L394.72,81.92 L396.8,81.6" fill="none" stroke="#111111" stroke-width="2.4" stroke-linejoin="round" stroke-linecap="round" clip-path="url(#apc800td3)"/><path d="M64,236.4 L66.08,235.76 L68.16,235.11 L70.24,234.47 L72.32,233.82 L74.4,233.18 L76.48,232.53 L78.56,231.89 L80.64,231.24 L82.72,230.6 L84.8,229.95 L86.88,229.31 L88.96,228.66 L91.04,228.02 L93.12,227.37 L95.2,226.73 L97.28,226.08 L99.36,225.44 L101.44,224.79 L103.52,224.15 L105.6,223.5 L107.68,222.86 L109.76,222.21 L111.84,221.57 L113.92,220.92 L116,220.27 L118.08,219.63 L120.16,218.99 L122.24,218.34 L124.32,217.7 L126.4,217.05 L128.48,216.41 L130.56,215.76 L132.64,215.12 L134.72,214.47 L136.8,213.83 L138.88,213.18 L140.96,212.54 L143.04,211.89 L145.12,211.25 L147.2,210.6 L149.28,209.96 L151.36,209.31 L153.44,208.67 L155.52,208.02 L157.6,207.38 L159.68,206.73 L161.76,206.08 L163.84,205.44 L165.92,204.8 L168,204.15 L170.08,203.51 L172.16,202.86 L174.24,202.21 L176.32,201.57 L178.4,200.93 L180.48,200.28 L182.56,199.64 L184.64,198.99 L186.72,198.35 L188.8,197.7 L190.88,197.06 L192.96,196.41 L195.04,195.77 L197.12,195.12 L199.2,194.48 L201.28,193.83 L203.36,193.19 L205.44,192.54 L207.52,191.9 L209.6,191.25 L211.68,190.61 L213.76,189.96 L215.84,189.32 L217.92,188.67 L220,188.02 L222.08,187.38 L224.16,186.74 L226.24,186.09 L228.32,185.45 L230.4,184.8 L232.48,184.15 L234.56,183.51 L236.64,182.87 L238.72,182.22 L240.8,181.58 L242.88,180.93 L244.96,180.29 L247.04,179.64 L249.12,179 L251.2,178.35 L253.28,177.71 L255.36,177.06 L257.44,176.42 L259.52,175.77 L261.6,175.13 L263.68,174.48 L265.76,173.83 L267.84,173.19 L269.92,172.55 L272,171.9 L274.08,171.26 L276.16,170.61 L278.24,169.96 L280.32,169.32 L282.4,168.68 L284.48,168.03 L286.56,167.39 L288.64,166.74 L290.72,166.1 L292.8,165.45 L294.88,164.81 L296.96,164.16 L299.04,163.51 L301.12,162.87 L303.2,162.23 L305.28,161.58 L307.36,160.94 L309.44,160.29 L311.52,159.65 L313.6,159 L315.68,158.35 L317.76,157.71 L319.84,157.07 L321.92,156.42 L324,155.78 L326.08,155.13 L328.16,154.49 L330.24,153.84 L332.32,153.2 L334.4,152.55 L336.48,151.9 L338.56,151.26 L340.64,150.62 L342.72,149.97 L344.8,149.33 L346.88,148.68 L348.96,148.04 L351.04,147.39 L353.12,146.75 L355.2,146.1 L357.28,145.46 L359.36,144.81 L361.44,144.17 L363.52,143.52 L365.6,142.88 L367.68,142.23 L369.76,141.59 L371.84,140.94 L373.92,140.29 L376,139.65 L378.08,139.01 L380.16,138.36 L382.24,137.72 L384.32,137.07 L386.4,136.42 L388.48,135.78 L390.56,135.14 L392.64,134.49 L394.72,133.85 L396.8,133.2" fill="none" stroke="#C8102E" stroke-width="2.4" stroke-linejoin="round" stroke-linecap="round" clip-path="url(#apc800td3)"/><text x="407.8" y="85.6" text-anchor="start" fill="#111111" font-size="12" font-weight="bold">f</text><text x="407.8" y="137.2" text-anchor="start" fill="#C8102E" font-size="12" font-weight="bold">g</text></svg>