<svg xmlns="http://www.w3.org/2000/svg" viewBox="0 0 580 340" width="580" height="340" role="img" font-family="Georgia, 'Times New Roman', serif" font-size="12"><defs><clipPath id="apc18d7ymc"><rect x="64" y="30" width="416" height="258"/></clipPath></defs><line x1="64" y1="30" x2="64" y2="288" stroke="#d1d5db" stroke-width="0.8"/><line x1="215.49" y1="30" x2="215.49" y2="288" stroke="#d1d5db" stroke-width="0.8"/><line x1="366.99" y1="30" x2="366.99" y2="288" stroke="#d1d5db" stroke-width="0.8"/><line x1="64" y1="288" x2="480" y2="288" stroke="#d1d5db" stroke-width="0.8"/><line x1="64" y1="236.4" x2="480" y2="236.4" stroke="#d1d5db" stroke-width="0.8"/><line x1="64" y1="184.8" x2="480" y2="184.8" stroke="#d1d5db" stroke-width="0.8"/><line x1="64" y1="133.2" x2="480" y2="133.2" stroke="#d1d5db" stroke-width="0.8"/><line x1="64" y1="81.6" x2="480" y2="81.6" stroke="#d1d5db" stroke-width="0.8"/><line x1="64" y1="30" x2="480" y2="30" stroke="#d1d5db" stroke-width="0.8"/><rect x="64" y="30" width="416" height="258" fill="none" stroke="#9ca3af" stroke-width="1"/><line x1="64" y1="236.4" x2="480" y2="236.4" stroke="#111" stroke-width="1.6"/><line x1="64" y1="30" x2="64" y2="288" stroke="#111" stroke-width="1.6"/><line x1="64" y1="288" x2="64" y2="292" stroke="#111"/><text x="64" y="305" text-anchor="middle" fill="#111">0</text><line x1="215.49" y1="288" x2="215.49" y2="292" stroke="#111"/><text x="215.49" y="305" text-anchor="middle" fill="#111">1</text><line x1="366.99" y1="288" x2="366.99" y2="292" stroke="#111"/><text x="366.99" y="305" text-anchor="middle" fill="#111">2</text><line x1="60" y1="288" x2="64" y2="288" stroke="#111"/><text x="56" y="292" text-anchor="end" fill="#111">-1</text><line x1="60" y1="236.4" x2="64" y2="236.4" stroke="#111"/><text x="56" y="240.4" text-anchor="end" fill="#111">0</text><line x1="60" y1="184.8" x2="64" y2="184.8" stroke="#111"/><text x="56" y="188.8" text-anchor="end" fill="#111">1</text><line x1="60" y1="133.2" x2="64" y2="133.2" stroke="#111"/><text x="56" y="137.2" text-anchor="end" fill="#111">2</text><line x1="60" y1="81.6" x2="64" y2="81.6" stroke="#111"/><text x="56" y="85.6" text-anchor="end" fill="#111">3</text><line x1="60" y1="30" x2="64" y2="30" stroke="#111"/><text x="56" y="34" text-anchor="end" fill="#111">4</text><text x="272" y="330" text-anchor="middle" fill="#111" font-size="13">x</text><text transform="translate(16 159) rotate(-90)" text-anchor="middle" fill="#111" font-size="13">y</text><path d="M64,133.2 L66.6,132.31 L69.2,131.43 L71.8,130.54 L74.4,129.66 L77,128.78 L79.6,127.9 L82.2,127.02 L84.8,126.14 L87.4,125.26 L90,124.39 L92.6,123.52 L95.2,122.65 L97.8,121.78 L100.4,120.92 L103,120.06 L105.6,119.21 L108.2,118.36 L110.8,117.51 L113.4,116.67 L116,115.83 L118.6,115 L121.2,114.18 L123.8,113.36 L126.4,112.54 L129,111.73 L131.6,110.93 L134.2,110.14 L136.8,109.35 L139.4,108.57 L142,107.79 L144.6,107.02 L147.2,106.26 L149.8,105.51 L152.4,104.77 L155,104.04 L157.6,103.31 L160.2,102.59 L162.8,101.88 L165.4,101.18 L168,100.49 L170.6,99.81 L173.2,99.14 L175.8,98.48 L178.4,97.83 L181,97.19 L183.6,96.56 L186.2,95.95 L188.8,95.34 L191.4,94.74 L194,94.16 L196.6,93.59 L199.2,93.02 L201.8,92.47 L204.4,91.94 L207,91.41 L209.6,90.9 L212.2,90.4 L214.8,89.91 L217.4,89.43 L220,88.97 L222.6,88.52 L225.2,88.08 L227.8,87.66 L230.4,87.25 L233,86.86 L235.6,86.47 L238.2,86.1 L240.8,85.75 L243.4,85.41 L246,85.08 L248.6,84.77 L251.2,84.47 L253.8,84.19 L256.4,83.92 L259,83.66 L261.6,83.42 L264.2,83.19 L266.8,82.98 L269.4,82.79 L272,82.61 L274.6,82.44 L277.2,82.29 L279.8,82.15 L282.4,82.03 L285,81.92 L287.6,81.83 L290.2,81.76 L292.8,81.69 L295.4,81.65 L298,81.62 L300.6,81.6 L303.2,81.6 L305.8,81.62 L308.4,81.65 L311,81.69 L313.6,81.75 L316.2,81.83 L318.8,81.92 L321.4,82.02 L324,82.14 L326.6,82.28 L329.2,82.43 L331.8,82.6 L334.4,82.78 L337,82.97 L339.6,83.18 L342.2,83.41 L344.8,83.65 L347.4,83.9 L350,84.17 L352.6,84.46 L355.2,84.75 L357.8,85.07 L360.4,85.39 L363,85.73 L365.6,86.09 L368.2,86.45 L370.8,86.84 L373.4,87.23 L376,87.64 L378.6,88.06 L381.2,88.5 L383.8,88.95 L386.4,89.41 L389,89.88 L391.6,90.37 L394.2,90.87 L396.8,91.38 L399.4,91.91 L402,92.45 L404.6,93 L407.2,93.56 L409.8,94.13 L412.4,94.71 L415,95.31 L417.6,95.92 L420.2,96.53 L422.8,97.16 L425.4,97.8 L428,98.45 L430.6,99.11 L433.2,99.78 L435.8,100.46 L438.4,101.15 L441,101.85 L443.6,102.56 L446.2,103.27 L448.8,104 L451.4,104.73 L454,105.48 L456.6,106.23 L459.2,106.99 L461.8,107.75 L464.4,108.53 L467,109.31 L469.6,110.1 L472.2,110.89 L474.8,111.69 L477.4,112.5 L480,113.32" fill="none" stroke="#111111" stroke-width="2.4" stroke-linejoin="round" stroke-linecap="round" clip-path="url(#apc18d7ymc)"/><path d="M64,210.6 L66.6,210.6 L69.2,210.58 L71.8,210.57 L74.4,210.54 L77,210.51 L79.6,210.46 L82.2,210.41 L84.8,210.36 L87.4,210.29 L90,210.22 L92.6,210.14 L95.2,210.05 L97.8,209.96 L100.4,209.86 L103,209.75 L105.6,209.63 L108.2,209.5 L110.8,209.37 L113.4,209.23 L116,209.08 L118.6,208.92 L121.2,208.76 L123.8,208.59 L126.4,208.41 L129,208.23 L131.6,208.03 L134.2,207.83 L136.8,207.62 L139.4,207.4 L142,207.18 L144.6,206.95 L147.2,206.71 L149.8,206.46 L152.4,206.21 L155,205.95 L157.6,205.68 L160.2,205.4 L162.8,205.11 L165.4,204.82 L168,204.52 L170.6,204.21 L173.2,203.9 L175.8,203.57 L178.4,203.24 L181,202.91 L183.6,202.56 L186.2,202.21 L188.8,201.85 L191.4,201.48 L194,201.1 L196.6,200.72 L199.2,200.33 L201.8,199.93 L204.4,199.52 L207,199.11 L209.6,198.68 L212.2,198.25 L214.8,197.82 L217.4,197.37 L220,196.92 L222.6,196.46 L225.2,195.99 L227.8,195.52 L230.4,195.04 L233,194.55 L235.6,194.05 L238.2,193.54 L240.8,193.03 L243.4,192.51 L246,191.98 L248.6,191.45 L251.2,190.9 L253.8,190.35 L256.4,189.79 L259,189.23 L261.6,188.65 L264.2,188.07 L266.8,187.48 L269.4,186.89 L272,186.28 L274.6,185.67 L277.2,185.05 L279.8,184.42 L282.4,183.79 L285,183.15 L287.6,182.5 L290.2,181.84 L292.8,181.18 L295.4,180.5 L298,179.82 L300.6,179.13 L303.2,178.44 L305.8,177.74 L308.4,177.03 L311,176.31 L313.6,175.58 L316.2,174.85 L318.8,174.11 L321.4,173.36 L324,172.6 L326.6,171.84 L329.2,171.07 L331.8,170.29 L334.4,169.5 L337,168.71 L339.6,167.91 L342.2,167.1 L344.8,166.28 L347.4,165.46 L350,164.62 L352.6,163.78 L355.2,162.94 L357.8,162.08 L360.4,161.22 L363,160.35 L365.6,159.47 L368.2,158.59 L370.8,157.69 L373.4,156.79 L376,155.88 L378.6,154.97 L381.2,154.05 L383.8,153.11 L386.4,152.18 L389,151.23 L391.6,150.28 L394.2,149.31 L396.8,148.35 L399.4,147.37 L402,146.38 L404.6,145.39 L407.2,144.39 L409.8,143.39 L412.4,142.37 L415,141.35 L417.6,140.32 L420.2,139.28 L422.8,138.24 L425.4,137.19 L428,136.13 L430.6,135.06 L433.2,133.98 L435.8,132.9 L438.4,131.81 L441,130.71 L443.6,129.61 L446.2,128.49 L448.8,127.37 L451.4,126.24 L454,125.11 L456.6,123.96 L459.2,122.81 L461.8,121.65 L464.4,120.49 L467,119.31 L469.6,118.13 L472.2,116.94 L474.8,115.74 L477.4,114.54 L480,113.33" fill="none" stroke="#C8102E" stroke-width="2.4" stroke-linejoin="round" stroke-linecap="round" clip-path="url(#apc18d7ymc)"/><text x="491" y="117.32" text-anchor="start" fill="#111111" font-size="12" font-weight="bold">f</text><text x="480" y="101.33" text-anchor="middle" fill="#C8102E" font-size="12" font-weight="bold">g</text></svg>